# xmcd
#
# Track frame offsets:
#	150
#	8760
#	18225
#	28958
#	40486
#	48429
#	58359
#	66084
#	74109
#	85284
#	93684
#	104709
#
# Disc length: 1520 seconds
#
# Revision: 1
# Processed by: cddbd v1.5.2PL0 Copyright (c) Steve Scherf et al.
# Submitted via: audiograbber 1.83.01
#
DISCID=b305ee0c
DTITLE=Buck Owens and His Bookaroos - The Instrumental Hits Of
DYEAR=1965
DGENRE=Country
TTITLE0=Buckaroo
TTITLE1=Orange Blossom Special
TTITLE2=Raz-Ma-Taz Polka
TTITLE3=Faded Love
TTITLE4=Bud's Bounce
TTITLE5=Country Polka
TTITLE6=Bibe 'Em Cabbage Down
TTITLE7=Steel Guitar Rag
TTITLE8=A Maiden's Prayer
TTITLE9=Buck's Polka
TTITLE10=Country Rag
TTITLE11=Mexican Polka
EXTD=
EXTT0=
EXTT1=
EXTT2=
EXTT3=
EXTT4=
EXTT5=
EXTT6=
EXTT7=
EXTT8=
EXTT9=
EXTT10=
EXTT11=
PLAYORDER=
